# xmcd
#
# Track frame offsets:
#	150
#	12488
#	32836
#	46876
#	66431
#	82956
#	102476
#	120665
#	139182
#	152277
#	176703
#	196993
#	216374
#	227721
#	240653
#
# Disc length: 3453 seconds
#
# Revision: 0
# Processed by: cddbd v1.5.2PL0 Copyright (c) Steve Scherf et al.
# Submitted via: EZCDAudioConverter 7.1.5.1
#
DISCID=cd0d7b0f
DTITLE=群星 - 闭上眼睛去旅行2 DISK-A
DYEAR=2004
DGENRE=
TTITLE0=蔡琴 - 被遗忘的时光
TTITLE1=陶喆 - 爱很简单
TTITLE2=Norah Jones - Don't know way
TTITLE3=顺子 - I'm sorry
TTITLE4=萧亚轩 - 我爱你那么多
TTITLE5=胡彦斌/萧亚轩 - 进行式
TTITLE6=陈淑桦 - 秋意上心头
TTITLE7=戴佩妮 - 你要的爱
TTITLE8=Kenny Rogers - You are so beautiful
TTITLE9=江淑娜 - 恋曲1990
TTITLE10=曾淑勤 - 情深意动
TTITLE11=许茹芸 - 祝福了
TTITLE12=齐豫 - 答案
TTITLE13=Nat King Cole - Dream a little fream of me
TTITLE14=巫启贤 - 思念谁
EXTD=
EXTT0=
EXTT1=
EXTT2=
EXTT3=
EXTT4=
EXTT5=
EXTT6=
EXTT7=
EXTT8=
EXTT9=
EXTT10=
EXTT11=
EXTT12=
EXTT13=
EXTT14=
PLAYORDER=
